<?xml version="1.0" encoding="UTF-8"?>
<svg width="60" height="60" viewBox="0 0 83 84" version="1.1" xmlns="http://www.w3.org/2000/svg" xmlns:xlink="http://www.w3.org/1999/xlink">
    <g id="Page-1" stroke="none" stroke-width="1" fill="none" fill-rule="evenodd">
        <g id="unhappy-face" fill="#666">
            <g id="Group">
                <path d="M41.5361328,83.25 C64.28125,83.25 82.7861328,64.7451172 82.7861328,42 C82.7861328,19.2548828 64.28125,0.75 41.5361328,0.75 C18.7910156,0.75 0.2861328,19.2548828 0.2861328,42 C0.2861328,64.7451172 18.7910156,83.25 41.5361328,83.25 Z M41.5361328,4.75 C62.0761719,4.75 78.7861328,21.4604492 78.7861328,42 C78.7861328,62.5395508 62.0761719,79.25 41.5361328,79.25 C20.9960937,79.25 4.2861328,62.5395508 4.2861328,42 C4.2861328,21.4604492 20.9960938,4.75 41.5361328,4.75 Z" id="Shape" fill-rule="nonzero"></path>
                <path d="M28.3984375,63.8227539 C28.7617188,64.487793 29.4472656,64.8642578 30.1552734,64.8642578 C30.4794922,64.8642578 30.8076172,64.7851562 31.1123047,64.6186523 C31.1757813,64.5844726 37.5273438,61.1538085 44.9658203,60.524414 C47.3652344,60.3237304 49.9511719,60.4052734 52.6513672,60.7695312 C53.7373047,60.9169921 54.7529297,60.1508789 54.9013672,59.0551757 C55.0488281,57.9609374 54.28125,56.9536132 53.1865234,56.805664 C50.1972656,56.4018554 47.3173828,56.3115234 44.6289062,56.5390624 C36.3583984,57.2382812 29.4833984,60.9511718 29.1943359,61.1088866 C28.2246094,61.6381836 27.8681641,62.8535156 28.3984375,63.8227539 Z" id="Path"></path>
                <ellipse id="Oval" transform="translate(56.493057, 32.083314) rotate(-67.499952) translate(-56.493057, -32.083314) " cx="56.4930566" cy="32.0833144" rx="4.58330964" ry="4.58333154"></ellipse>
                <circle id="Oval" cx="26.5791626" cy="32.083313" r="4.583313"></circle>
                <path d="M18.2412109,26.753418 C18.5576172,26.753418 18.8789062,26.6777344 19.1777343,26.519043 L32.1005859,19.6503907 C33.0761718,19.131836 33.446289,17.9208985 32.9277343,16.9458009 C32.4091796,15.9707033 31.1982421,15.6000978 30.2236327,16.1181642 L17.3007811,22.9868165 C16.3251952,23.5053712 15.955078,24.7163087 16.4736327,25.6914063 C16.8330078,26.3676758 17.5253906,26.753418 18.2412109,26.753418 Z" id="Path"></path>
                <path d="M50.9716797,19.6503906 L63.8945313,26.5190429 C64.1933594,26.6777343 64.5146485,26.7534179 64.8310547,26.7534179 C65.546875,26.7534179 66.2392578,26.3676757 66.5986328,25.6914062 C67.1171875,24.7163085 66.7470703,23.505371 65.7714844,22.9868164 L52.8486328,16.1181641 C51.8740234,15.6000977 50.6630859,15.9707032 50.1445312,16.9458008 C49.6259765,17.9208984 49.9960938,19.1318359 50.9716797,19.6503906 Z" id="Path"></path>
            </g>
        </g>
    </g>
</svg>
